<!DOCTYPE svg PUBLIC "-//W3C//DTD SVG 1.1//EN" "http://www.w3.org/Graphics/SVG/1.1/DTD/svg11.dtd">
<!-- Uploaded to: SVG Repo, www.svgrepo.com, Transformed by: SVG Repo Mixer Tools -->
<svg fill="#91C355" width="800px" height="800px" viewBox="0 0 64 64" xmlns="http://www.w3.org/2000/svg" stroke="#91C355">
<g id="SVGRepo_bgCarrier" stroke-width="0"/>
<g id="SVGRepo_tracerCarrier" stroke-linecap="round" stroke-linejoin="round"/>
<g id="SVGRepo_iconCarrier"> <g id="a"/> <g id="b"> <path d="M57.9443,30.4697c-.3867-5.3633-4.7046-7.7041-5.9443-8.2686v-5.7012c0-1.9297-1.5703-3.5-3.5-3.5H9.5c-1.9297,0-3.5,1.5703-3.5,3.5v20c0,1.9297,1.5703,3.5,3.5,3.5H29.1206c-.6851,.6738-1.3618,1.4014-2.0063,2.1816-.1523,.1846-.1523,.4521,0,.6367,4.2549,5.1533,9.9238,8.0098,10.1631,8.1289,.0703,.0352,.1465,.0527,.2227,.0527,.0913,0,.1831-.0254,.2632-.0752,.1475-.0908,.2368-.252,.2368-.4248v-2.4863c2.0288,.0391,9.3398-.0518,13.4019-2.8291,2.7061-1.8506,7.1548-6.2227,6.5425-14.7148ZM9.5,39c-1.3784,0-2.5-1.1211-2.5-2.5V16.5c0-1.3789,1.1216-2.5,2.5-2.5H48.5c1.3784,0,2.5,1.1211,2.5,2.5l.0024,5.9814c-.0034,.0342-.0034,.0684,0,.1025l.0024,5.168c-.0068,.0488-.7432,4.9004-7.0288,7.877-2.2139,1.0498-4.8853,1.293-5.9761,1.3496v-2.4785c0-.1729-.0894-.334-.2368-.4248-.147-.0908-.3311-.1006-.4858-.0225-.1846,.0918-3.5913,1.8076-7.0913,4.9473H9.5Zm41.3374,5.3584c-4.3706,2.9893-13.2266,2.6484-13.3159,2.6416-.1328,.002-.2686,.0449-.3672,.1387-.0986,.0947-.1543,.2246-.1543,.3613v2.1602c-1.6191-.916-5.6436-3.4092-8.8472-7.1602,3.2036-3.751,7.228-6.2441,8.8472-7.1602v2.1553c0,.2764,.2236,.5,.5,.5,.1558,0,3.854-.0166,6.9043-1.4619,6.769-3.2061,7.5605-8.4238,7.5957-8.7129v-4.5107c1.4209,.7344,4.6323,2.8652,4.9473,7.2324,.5762,7.9932-3.5806,12.0879-6.1099,13.8164Zm-18.7568-14.167c.6045-1.043,.5654-2.2734-.1074-3.377-.4351-.7148-1.2041-1.2246-1.9517-1.7197-.6934-.4609-1.0869-.7627-1.1421-.8066-.0186-.127,.0244-.2441,.0713-.2979,.0156-.0186,.0298-.0342,.0996-.0391,.1699,.002,.2686,.1113,.2681,.1104,.4604,.6377,1.3604,.8164,2.0493,.4062,.6816-.4053,.8901-1.251,.4844-1.9678-.3079-.544-1.1695-1.2845-2.4112-1.4023-.0159-.0738-.0289-.137-.0331-.1746-.0724-.4439-.751-.436-.8206,0l-.0416,.2125c-.7568,.1178-1.4344,.4649-1.9215,1.0215-.604,.6914-.873,1.6123-.7383,2.5264,.189,1.293,1.4185,2.1084,2.4092,2.7666,.3096,.2051,.9541,.6328,1.0615,.8018,.0928,.1523,.1812,.373,.0752,.5547-.0835,.1445-.2622,.2363-.4971,.2529-.1948,.0039-.5332-.29-.6689-.498-.4253-.6729-1.3223-.8945-2.0439-.5068-.6704,.3613-.9067,1.1279-.5879,1.9082,.3538,.8638,1.5298,1.7808,2.9023,1.9343l.051,.2608c.0696,.436,.7482,.444,.8206,0,.0063-.056,.0316-.1699,.0583-.2936,1.1176-.165,2.0853-.7613,2.6145-1.673Zm-5.521-.6074c-.0581-.1416-.1606-.4883,.1367-.6484,.085-.0459,.1797-.0684,.2729-.0684,.1816,0,.3594,.084,.4556,.2354,.0068,.0098,.6748,1.0156,1.5854,.9541,.5649-.0391,1.0342-.3115,1.2861-.748,.2715-.4668,.2397-1.041-.0859-1.5762-.2007-.3291-.6909-.6699-1.3657-1.1182-.8647-.5732-1.8452-1.2236-1.9697-2.0762-.0918-.624,.0908-1.2529,.5015-1.7227,.373-.4258,.9141-.6846,1.5229-.7285,1.1387-.0889,1.8945,.5742,2.0825,.9053,.1055,.1875,.1367,.4609-.125,.6162-.2393,.1426-.5732,.0811-.7383-.1455-.1011-.1299-.4878-.5596-1.1348-.5098-.3218,.0234-.5864,.1504-.7866,.3799-.251,.2881-.3657,.6992-.3071,1.1006,.0625,.4219,.5371,.8018,1.5825,1.4971,.6523,.4326,1.3271,.8799,1.6465,1.4043,.4761,.7803,.5112,1.6387,.0962,2.3545-.4111,.709-1.2051,1.1699-2.1265,1.2334-1.2119,.082-2.2891-.751-2.5293-1.3389Zm-8.5601-5.043c-1.103,0-2,.8975-2,2s.897,2,2,2,2-.8975,2-2-.897-2-2-2Zm0,3c-.5513,0-1-.4482-1-1s.4487-1,1-1,1,.4482,1,1-.4487,1-1,1Zm22.001,1c1.103,0,2-.8975,2-2s-.897-2-2-2-2,.8975-2,2,.897,2,2,2Zm0-3c.5513,0,1,.4482,1,1s-.4487,1-1,1-1-.4482-1-1,.4487-1,1-1Z"/> </g> </g>
</svg>